<svg xmlns="http://www.w3.org/2000/svg" width="805" height="600"><rect width="805" height="600" x="0" y="0" fill="#FFFFFF" id="backgorund"/><g id="viz"><clipPath id="serieClipPath"><rect x="-50" y="-10" width="805" height="600"/></clipPath><g transform="translate(0,0)"><g transform="translate(50,10)" clip-path="url(#serieClipPath)"><g id="axis"><g transform="translate(0,570)" fill="none" font-size="10" font-family="sans-serif" text-anchor="middle"><path class="domain" stroke="currentColor" d="M0.5,6V0.5H740.5V6"/><g class="tick" opacity="1" transform="translate(0.5,0)"><line stroke="currentColor" y2="6"/><text fill="currentColor" y="9" dy="0.71em">Mar 13</text></g><g class="tick" opacity="1" transform="translate(45.34848484848485,0)"><line stroke="currentColor" y2="6"/><text fill="currentColor" y="9" dy="0.71em">Tue 15</text></g><g class="tick" opacity="1" transform="translate(90.1969696969697,0)"><line stroke="currentColor" y2="6"/><text fill="currentColor" y="9" dy="0.71em">Thu 17</text></g><g class="tick" opacity="1" transform="translate(135.04545454545456,0)"><line stroke="currentColor" y2="6"/><text fill="currentColor" y="9" dy="0.71em">Sat 19</text></g><g class="tick" opacity="1" transform="translate(179.8939393939394,0)"><line stroke="currentColor" y2="6"/><text fill="currentColor" y="9" dy="0.71em">Mon 21</text></g><g class="tick" opacity="1" transform="translate(224.74242424242425,0)"><line stroke="currentColor" y2="6"/><text fill="currentColor" y="9" dy="0.71em">Wed 23</text></g><g class="tick" opacity="1" transform="translate(269.5909090909091,0)"><line stroke="currentColor" y2="6"/><text fill="currentColor" y="9" dy="0.71em">Fri 25</text></g><g class="tick" opacity="1" transform="translate(314.43939393939394,0)"><line stroke="currentColor" y2="6"/><text fill="currentColor" y="9" dy="0.71em">Mar 27</text></g><g class="tick" opacity="1" transform="translate(359.2878787878788,0)"><line stroke="currentColor" y2="6"/><text fill="currentColor" y="9" dy="0.71em">Tue 29</text></g><g class="tick" opacity="1" transform="translate(404.1363636363636,0)"><line stroke="currentColor" y2="6"/><text fill="currentColor" y="9" dy="0.71em">Thu 31</text></g><g class="tick" opacity="1" transform="translate(426.5606060606061,0)"><line stroke="currentColor" y2="6"/><text fill="currentColor" y="9" dy="0.71em">April</text></g><g class="tick" opacity="1" transform="translate(471.4090909090909,0)"><line stroke="currentColor" y2="6"/><text fill="currentColor" y="9" dy="0.71em">Apr 03</text></g><g class="tick" opacity="1" transform="translate(516.2575757575758,0)"><line stroke="currentColor" y2="6"/><text fill="currentColor" y="9" dy="0.71em">Tue 05</text></g><g class="tick" opacity="1" transform="translate(561.1060606060606,0)"><line stroke="currentColor" y2="6"/><text fill="currentColor" y="9" dy="0.71em">Thu 07</text></g><g class="tick" opacity="1" transform="translate(605.9545454545455,0)"><line stroke="currentColor" y2="6"/><text fill="currentColor" y="9" dy="0.71em">Sat 09</text></g><g class="tick" opacity="1" transform="translate(650.8030303030303,0)"><line stroke="currentColor" y2="6"/><text fill="currentColor" y="9" dy="0.71em">Mon 11</text></g><g class="tick" opacity="1" transform="translate(695.6515151515152,0)"><line stroke="currentColor" y2="6"/><text fill="currentColor" y="9" dy="0.71em">Wed 13</text></g><g class="tick" opacity="1" transform="translate(740.5,0)"><line stroke="currentColor" y2="6"/><text fill="currentColor" y="9" dy="0.71em">Fri 15</text></g><text x="740" dy="-5" text-anchor="end" style="font-family: Arial, sans-serif; font-size: 12px; fill: rgb(123, 123, 123); font-weight: bold;">日期</text></g><g transform="translate(0,0)" fill="none" font-size="10" font-family="sans-serif" text-anchor="end"><path class="domain" stroke="currentColor" d="M0.5,570.5V0.5"/><g class="tick" opacity="1" transform="translate(0,570.5)"><line stroke="currentColor" x2="-6"/><text fill="currentColor" x="-9" dy="0.32em">555</text></g><g class="tick" opacity="1" transform="translate(0,507.16666666666663)"><line stroke="currentColor" x2="-6"/><text fill="currentColor" x="-9" dy="0.32em">560</text></g><g class="tick" opacity="1" transform="translate(0,443.8333333333333)"><line stroke="currentColor" x2="-6"/><text fill="currentColor" x="-9" dy="0.32em">565</text></g><g class="tick" opacity="1" transform="translate(0,380.50000000000006)"><line stroke="currentColor" x2="-6"/><text fill="currentColor" x="-9" dy="0.32em">570</text></g><g class="tick" opacity="1" transform="translate(0,317.1666666666667)"><line stroke="currentColor" x2="-6"/><text fill="currentColor" x="-9" dy="0.32em">575</text></g><g class="tick" opacity="1" transform="translate(0,253.83333333333331)"><line stroke="currentColor" x2="-6"/><text fill="currentColor" x="-9" dy="0.32em">580</text></g><g class="tick" opacity="1" transform="translate(0,190.50000000000003)"><line stroke="currentColor" x2="-6"/><text fill="currentColor" x="-9" dy="0.32em">585</text></g><g class="tick" opacity="1" transform="translate(0,127.16666666666666)"><line stroke="currentColor" x2="-6"/><text fill="currentColor" x="-9" dy="0.32em">590</text></g><g class="tick" opacity="1" transform="translate(0,63.833333333333364)"><line stroke="currentColor" x2="-6"/><text fill="currentColor" x="-9" dy="0.32em">595</text></g><g class="tick" opacity="1" transform="translate(0,0.5)"><line stroke="currentColor" x2="-6"/><text fill="currentColor" x="-9" dy="0.32em">600</text></g><text x="4" text-anchor="start" dominant-baseline="hanging" style="font-family: Arial, sans-serif; font-size: 12px; fill: rgb(123, 123, 123); font-weight: bold;">       收盤</text></g></g><g id="viz"><g><path d="M22.424242424242426,354.6666666666667C33.63636363636364,354.6666666666667,33.63636363636364,532,44.84848484848485,532C56.06060606060606,532,56.06060606060606,532,67.27272727272728,532C78.4848484848485,532,78.4848484848485,228,89.6969696969697,228C100.9090909090909,228,100.9090909090909,240.66666666666669,112.12121212121212,240.66666666666669C145.75757575757575,240.66666666666669,145.75757575757575,177.33333333333334,179.3939393939394,177.33333333333334C190.60606060606062,177.33333333333334,190.60606060606062,215.33333333333331,201.8181818181818,215.33333333333331C213.03030303030303,215.33333333333331,213.03030303030303,126.66666666666666,224.24242424242425,126.66666666666666C235.45454545454544,126.66666666666666,235.45454545454544,113.99999999999997,246.66666666666666,113.99999999999997C257.8787878787879,113.99999999999997,257.8787878787879,25.333333333333307,269.0909090909091,25.333333333333307C302.72727272727275,25.333333333333307,302.72727272727275,202.66666666666663,336.3636363636364,202.66666666666663C347.5757575757576,202.66666666666663,347.5757575757576,139.33333333333334,358.7878787878788,139.33333333333334C370,139.33333333333334,370,0,381.2121212121212,0C392.4242424242424,0,392.4242424242424,37.99999999999999,403.6363636363636,37.99999999999999C414.8484848484849,37.99999999999999,414.8484848484849,139.33333333333334,426.0606060606061,139.33333333333334C482.1212121212122,139.33333333333334,482.1212121212122,278.6666666666667,538.1818181818182,278.6666666666667C549.3939393939395,278.6666666666667,549.3939393939395,430.66666666666663,560.6060606060606,430.66666666666663C571.8181818181818,430.66666666666663,571.8181818181818,418.00000000000006,583.030303030303,418.00000000000006C616.6666666666666,418.00000000000006,616.6666666666666,532,650.3030303030303,532C661.5151515151515,532,661.5151515151515,544.6666666666667,672.7272727272727,544.6666666666667C683.939393939394,544.6666666666667,683.939393939394,342,695.1515151515152,342C706.3636363636365,342,706.3636363636365,342,717.5757575757576,342" stroke="#1f77b4" fill="none"/><text font-family="sans-serif" font-size="10" class="labels" x="381.2121212121212" y="0" dx="0" dy="-4" text-anchor="middle"/></g></g></g><text y="4" x="4" style="font-family: Arial, sans-serif; font-size: 12px; fill: black; font-weight: bold; dominant-baseline: hanging;"/></g><g id="grid"><rect x="0" y="0" width="805" height="600" fill="none" stroke="#ccc"/></g></g></svg>